# xmcd
#
# Track frame offsets: 
#        150
#        31043
#        55340
#        74208
#        97678
#        116053
#        132605
#        143680
#        161890
#
# Disc length: 2423 seconds
#
# Revision: 0
# Processed by: cddbd v1.5.2PL0 Copyright (c) Steve Scherf et al.
# Submitted via: ExactAudioCopy v1.0b1
#
DISCID=82097509
DTITLE=Davey Pattison - Mississippi Nights
DYEAR=1999
DGENRE=Blues
TTITLE0=Too Hot To Sleep
TTITLE1=Mississippi Nights
TTITLE2=Daydreaming
TTITLE3=Feel Like Screaming
TTITLE4=I Got The Hots For You
TTITLE5=Pretty One
TTITLE6=Houston Street Blues
TTITLE7=Slow Down
TTITLE8=Have A Look At Yourself
EXTD=
EXTT0=
EXTT1=
EXTT2=
EXTT3=
EXTT4=
EXTT5=
EXTT6=
EXTT7=
EXTT8=
PLAYORDER=
